<!DOCTYPE svg PUBLIC "-//W3C//DTD SVG 20010904//EN" "http://www.w3.org/TR/2001/REC-SVG-20010904/DTD/svg10.dtd">
<svg version="1.0" xmlns="http://www.w3.org/2000/svg" width="486px" height="486px" viewBox="0 0 4860 4860" preserveAspectRatio="xMidYMid meet">
<g id="layer101" fill="#201715" stroke="none">
<path d="M2296 4804 c-5 -14 -46 -15 -46 -1 0 5 -6 4 -14 -2 -10 -8 -16 -9 -21 -1 -3 6 -12 7 -18 3 -6 -4 -20 -8 -32 -9 -11 -1 -42 -7 -69 -14 -39 -8 -51 -8 -58 2 -6 10 -12 9 -23 -6 -12 -16 -17 -17 -30 -6 -10 8 -19 10 -23 4 -9 -12 -67 -32 -119 -40 -24 -4 -43 -10 -43 -15 0 -5 -15 -9 -34 -9 -19 0 -38 -4 -41 -10 -3 -5 -19 -10 -36 -10 -16 0 -29 -4 -29 -10 0 -5 -11 -10 -25 -10 -14 0 -25 -4 -25 -9 0 -5 -11 -8 -25 -5 -18 3 -25 0 -25 -11 0 -10 -10 -15 -30 -15 -17 0 -39 -9 -50 -20 -11 -11 -28 -20 -39 -20 -10 0 -35 -11 -55 -25 -20 -14 -43 -25 -51 -25 -7 0 -27 -13 -43 -30 -17 -16 -41 -30 -54 -30 -26 -1 -58 -22 -58 -39 0 -6 -6 -11 -13 -11 -21 0 -77 -30 -77 -41 0 -6 -15 -16 -34 -24 -19 -8 -37 -23 -40 -33 -3 -9 -23 -26 -43 -37 -21 -11 -59 -41 -85 -67 -26 -27 -52 -48 -58 -48 -5 0 -10 -7 -10 -16 0 -9 -9 -18 -20 -21 -11 -3 -20 -12 -20 -20 0 -8 -13 -20 -30 -26 -16 -6 -30 -17 -30 -24 0 -7 -7 -13 -15 -13 -9 0 -18 -8 -22 -17 -3 -10 -21 -32 -40 -49 -18 -18 -33 -38 -33 -45 0 -8 -13 -25 -30 -39 -16 -14 -30 -30 -30 -36 0 -6 -14 -23 -30 -38 -17 -15 -28 -31 -25 -36 4 -6 0 -13 -9 -16 -8 -3 -18 -19 -21 -35 -4 -16 -10 -29 -15 -29 -5 0 -21 -25 -35 -55 -15 -30 -31 -55 -36 -55 -5 0 -9 -11 -9 -25 0 -16 -6 -25 -15 -25 -8 0 -15 -8 -15 -18 0 -10 -5 -23 -11 -29 -6 -6 -11 -17 -13 -24 -5 -30 -18 -59 -25 -59 -5 0 -16 -20 -25 -45 -10 -25 -22 -45 -28 -45 -5 0 -6 -9 -3 -20 3 -11 3 -20 -2 -20 -11 0 -30 -45 -44 -105 -6 -27 -15 -58 -20 -67 -5 -10 -9 -27 -9 -37 0 -11 -5 -23 -11 -26 -6 -4 -8 -14 -5 -22 4 -9 1 -22 -5 -29 -6 -8 -9 -23 -6 -33 3 -11 -2 -29 -10 -41 -8 -12 -13 -33 -10 -47 2 -13 -2 -39 -11 -56 -9 -17 -16 -54 -17 -82 -1 -27 -6 -59 -11 -70 -6 -11 -9 -92 -7 -180 1 -88 2 -180 1 -205 -2 -111 5 -170 23 -181 8 -5 10 -9 5 -9 -5 0 -3 -7 4 -15 6 -8 9 -19 5 -26 -4 -6 -1 -15 6 -20 10 -6 11 -9 2 -9 -7 0 -13 -11 -13 -25 0 -14 4 -25 9 -25 4 0 6 -11 3 -25 -3 -16 0 -25 8 -25 7 0 10 -8 7 -20 -3 -11 -1 -23 4 -26 5 -3 9 -20 9 -38 0 -18 3 -36 7 -40 8 -8 14 -31 16 -64 1 -13 9 -29 18 -36 9 -6 19 -27 22 -46 9 -63 19 -90 34 -90 8 0 11 -5 8 -10 -8 -12 54 -170 66 -170 5 0 9 -5 9 -12 0 -18 50 -118 59 -118 5 0 12 -15 15 -34 4 -19 13 -37 21 -40 8 -3 15 -12 15 -20 0 -7 7 -16 15 -20 8 -3 23 -23 32 -46 10 -22 23 -40 30 -40 6 0 15 -9 18 -21 4 -11 25 -38 46 -59 21 -21 39 -47 39 -59 0 -11 11 -28 25 -37 14 -9 25 -21 25 -26 0 -5 16 -24 35 -41 19 -17 35 -36 35 -43 0 -7 17 -21 39 -31 21 -10 44 -30 50 -46 7 -15 18 -27 25 -27 7 0 34 -20 62 -45 68 -62 72 -65 84 -65 5 0 10 -7 10 -15 0 -8 9 -15 20 -15 10 0 27 -8 37 -18 27 -27 90 -72 101 -72 6 0 13 -7 16 -16 3 -8 11 -12 17 -9 6 4 17 -2 25 -14 8 -12 22 -21 30 -21 8 0 28 -10 43 -21 16 -12 33 -19 38 -16 5 3 16 -3 23 -14 8 -10 19 -19 25 -19 6 0 28 -9 50 -20 22 -11 45 -20 52 -20 7 0 13 -4 13 -10 0 -5 11 -10 25 -10 14 0 25 -4 25 -9 0 -11 56 -32 64 -24 3 4 6 2 6 -4 0 -6 19 -13 42 -16 23 -3 45 -13 50 -21 6 -11 17 -14 34 -10 15 4 24 2 24 -6 0 -7 6 -10 14 -7 7 3 19 0 25 -6 8 -8 14 -8 22 0 9 9 16 6 29 -9 14 -18 27 -22 68 -21 29 1 54 -2 57 -7 3 -5 27 -12 53 -16 26 -3 52 -11 59 -16 7 -6 19 -6 31 1 13 7 31 7 53 1 19 -6 57 -10 84 -10 28 0 56 -5 63 -12 9 -9 13 -8 17 4 5 13 13 14 38 7 21 -6 33 -6 35 1 3 7 8 7 18 0 22 -19 371 6 409 29 6 3 32 7 59 8 27 1 52 6 56 12 3 7 24 12 46 13 21 0 44 5 50 9 6 5 21 11 35 13 13 3 24 5 24 6 0 1 13 3 29 5 16 2 32 9 36 15 4 6 11 10 16 9 17 -3 74 14 74 22 0 5 9 9 20 9 11 0 37 8 58 17 20 9 42 17 49 18 7 0 18 8 25 17 7 10 28 19 45 20 18 1 35 8 37 15 3 7 12 13 21 13 8 0 15 4 15 10 0 5 6 7 14 4 8 -3 19 3 25 15 6 11 30 30 54 41 88 43 122 63 125 71 2 5 10 9 18 9 13 0 18 12 15 33 -1 4 12 10 29 13 16 4 30 10 30 15 0 5 7 9 15 9 9 0 18 7 21 15 4 8 12 15 20 15 8 0 14 5 14 10 0 6 5 10 11 10 7 0 19 8 28 18 9 10 31 25 49 33 17 7 32 19 32 26 0 6 14 23 30 36 17 14 30 30 30 35 0 5 9 12 21 15 11 3 23 15 26 26 3 12 11 21 19 21 7 0 24 18 36 40 13 22 29 40 36 40 6 0 12 9 12 20 0 13 9 22 25 26 29 7 48 35 39 58 -3 9 -1 16 6 16 14 0 41 26 55 54 21 39 40 69 55 87 35 41 40 49 40 63 0 9 9 20 20 26 11 6 20 16 19 23 -3 26 1 48 9 43 7 -4 38 46 47 74 1 3 9 22 18 42 10 21 17 41 17 46 0 4 5 13 12 20 6 6 13 18 14 26 2 13 28 75 45 108 5 10 6 24 3 32 -3 8 4 20 15 28 12 8 18 18 15 21 -4 4 -2 12 4 20 6 7 11 22 11 32 0 19 3 34 13 65 21 62 26 89 21 113 -3 16 -1 27 6 27 6 0 11 7 11 15 0 8 3 15 8 15 4 0 8 24 9 54 2 30 7 66 13 80 6 16 6 35 0 50 -5 15 -5 38 0 58 5 18 11 63 13 99 3 37 8 72 11 78 4 6 3 11 -3 11 -5 0 -10 30 -11 68 -2 139 -5 197 -11 207 -3 6 -4 24 -3 40 1 17 -5 63 -13 103 -8 40 -11 77 -8 82 3 6 1 10 -4 10 -6 0 -11 11 -11 25 0 14 -5 25 -10 25 -6 0 -8 11 -6 24 2 13 -4 40 -14 59 -11 20 -20 52 -22 71 -1 20 -5 36 -9 36 -10 0 -34 63 -31 83 2 9 -13 51 -32 93 -20 41 -36 77 -36 80 0 4 -14 26 -30 51 -20 30 -29 52 -24 65 4 14 0 21 -14 25 -14 3 -18 11 -14 25 3 14 1 19 -6 14 -8 -5 -12 1 -12 16 -1 13 -14 39 -30 58 -17 19 -30 40 -30 47 0 7 -10 13 -21 13 -17 0 -20 5 -17 25 4 17 1 25 -8 25 -8 0 -14 8 -14 18 0 24 -67 95 -82 86 -7 -4 -8 -3 -4 5 5 7 -9 28 -33 53 -23 22 -41 44 -41 48 0 9 -67 80 -75 80 -11 0 -65 64 -65 76 0 8 -15 20 -34 28 -19 8 -42 26 -51 40 -10 14 -24 26 -31 26 -8 0 -14 7 -14 15 0 8 -6 12 -14 9 -9 -3 -17 3 -21 15 -4 14 -15 21 -31 21 -17 0 -24 5 -24 20 0 11 -4 21 -10 21 -5 1 -14 2 -19 3 -5 0 -17 11 -27 24 -11 13 -26 24 -34 26 -32 6 -70 30 -76 48 -4 13 -12 18 -24 15 -18 -5 -60 25 -60 42 0 5 -9 7 -19 4 -13 -3 -21 2 -26 17 -4 12 -9 19 -12 17 -5 -6 -96 32 -205 85 -10 4 -27 8 -38 8 -11 0 -20 3 -20 8 0 16 -85 47 -215 78 -38 10 -74 20 -80 24 -5 3 -21 5 -35 4 -14 -1 -58 7 -99 18 -40 11 -86 17 -102 14 -16 -3 -40 1 -56 9 -17 9 -31 11 -37 5 -5 -5 -16 -5 -25 -1 -9 5 -58 6 -109 2 -51 -3 -100 -4 -110 0 -40 14 -111 16 -116 3z"/>
</g>
<g id="layer102" fill="#0196e4" stroke="none">
<path d="M2296 4804 c-5 -14 -46 -15 -46 -1 0 5 -6 4 -14 -2 -10 -8 -16 -9 -21 -1 -3 6 -12 7 -18 3 -6 -4 -20 -8 -32 -9 -11 -1 -42 -7 -69 -14 -39 -8 -51 -8 -58 2 -6 10 -12 9 -23 -6 -12 -16 -17 -17 -30 -6 -10 8 -19 10 -23 4 -9 -12 -67 -32 -119 -40 -24 -4 -43 -10 -43 -15 0 -5 -15 -9 -34 -9 -19 0 -38 -4 -41 -10 -3 -5 -19 -10 -36 -10 -16 0 -29 -4 -29 -10 0 -5 -11 -10 -25 -10 -14 0 -25 -4 -25 -9 0 -5 -11 -8 -25 -5 -18 3 -25 0 -25 -11 0 -10 -10 -15 -30 -15 -17 0 -39 -9 -50 -20 -11 -11 -28 -20 -39 -20 -10 0 -35 -11 -55 -25 -20 -14 -43 -25 -51 -25 -7 0 -27 -13 -43 -30 -17 -16 -41 -30 -54 -30 -26 -1 -58 -22 -58 -39 0 -6 -6 -11 -13 -11 -21 0 -77 -30 -77 -41 0 -6 -15 -16 -34 -24 -19 -8 -37 -23 -40 -33 -3 -9 -23 -26 -43 -37 -21 -11 -59 -41 -85 -67 -26 -27 -52 -48 -58 -48 -5 0 -10 -7 -10 -16 0 -9 -9 -18 -20 -21 -11 -3 -20 -12 -20 -20 0 -8 -13 -20 -30 -26 -16 -6 -30 -17 -30 -24 0 -7 -7 -13 -15 -13 -9 0 -18 -8 -22 -17 -3 -10 -21 -32 -40 -49 -18 -18 -33 -38 -33 -45 0 -8 -13 -25 -30 -39 -16 -14 -30 -30 -30 -36 0 -6 -14 -23 -30 -38 -17 -15 -28 -31 -25 -36 4 -6 0 -13 -9 -16 -8 -3 -18 -19 -21 -35 -4 -16 -10 -29 -15 -29 -5 0 -21 -25 -35 -55 -15 -30 -31 -55 -36 -55 -5 0 -9 -11 -9 -25 0 -16 -6 -25 -15 -25 -8 0 -15 -8 -15 -18 0 -10 -5 -23 -11 -29 -6 -6 -11 -17 -13 -24 -5 -30 -18 -59 -25 -59 -5 0 -16 -20 -25 -45 -10 -25 -22 -45 -28 -45 -5 0 -6 -9 -3 -20 3 -11 3 -20 -2 -20 -11 0 -30 -45 -44 -105 -6 -27 -15 -58 -20 -67 -5 -10 -9 -27 -9 -37 0 -11 -5 -23 -11 -26 -6 -4 -8 -14 -5 -22 4 -9 1 -22 -5 -29 -6 -8 -9 -23 -6 -33 3 -11 -2 -29 -10 -41 -8 -12 -13 -33 -10 -47 2 -13 -2 -39 -11 -56 -9 -17 -16 -54 -17 -82 -1 -27 -6 -59 -11 -70 -6 -11 -9 -92 -7 -180 1 -88 2 -180 1 -205 -2 -111 5 -170 23 -181 8 -5 10 -9 5 -9 -5 0 -3 -7 4 -15 6 -8 9 -19 5 -26 -4 -6 -1 -15 6 -20 10 -6 11 -9 2 -9 -7 0 -13 -11 -13 -25 0 -14 4 -25 9 -25 4 0 6 -11 3 -25 -3 -16 0 -25 8 -25 7 0 10 -8 7 -20 -3 -11 -1 -23 4 -26 5 -3 9 -20 9 -38 0 -18 3 -36 7 -40 8 -8 14 -31 16 -64 1 -13 9 -29 18 -36 9 -6 19 -27 22 -46 9 -63 19 -90 34 -90 8 0 11 -5 8 -10 -8 -12 54 -170 66 -170 5 0 9 -5 9 -12 0 -18 50 -118 59 -118 5 0 12 -15 15 -34 4 -19 13 -37 21 -40 8 -3 15 -12 15 -20 0 -7 7 -16 15 -20 8 -3 23 -23 32 -46 10 -22 23 -40 30 -40 6 0 15 -9 18 -21 4 -11 25 -38 46 -59 21 -21 39 -47 39 -59 0 -11 11 -28 25 -37 14 -9 25 -21 25 -26 0 -5 16 -24 35 -41 19 -17 35 -36 35 -43 0 -7 17 -21 39 -31 21 -10 44 -30 50 -46 7 -15 18 -27 25 -27 7 0 34 -20 62 -45 68 -62 72 -65 84 -65 5 0 10 -7 10 -15 0 -8 9 -15 20 -15 10 0 27 -8 37 -18 27 -27 90 -72 101 -72 6 0 13 -7 16 -16 3 -8 11 -12 17 -9 6 4 17 -2 25 -14 8 -12 22 -21 30 -21 8 0 28 -10 43 -21 16 -12 33 -19 38 -16 5 3 16 -3 23 -14 8 -10 19 -19 25 -19 6 0 28 -9 50 -20 22 -11 45 -20 52 -20 7 0 13 -4 13 -10 0 -5 11 -10 25 -10 14 0 25 -4 25 -9 0 -11 56 -32 64 -24 3 4 6 2 6 -4 0 -6 19 -13 42 -16 23 -3 45 -13 50 -21 6 -11 17 -14 34 -10 15 4 24 2 24 -6 0 -7 6 -10 14 -7 7 3 19 0 25 -6 8 -8 14 -8 22 0 9 9 16 6 29 -9 14 -18 27 -22 68 -21 29 1 54 -2 57 -7 3 -5 27 -12 53 -16 26 -3 52 -11 59 -16 7 -6 19 -6 31 1 13 7 31 7 53 1 19 -6 57 -10 84 -10 28 0 56 -5 63 -12 9 -9 13 -8 17 4 5 13 13 14 38 7 21 -6 33 -6 35 1 3 7 8 7 18 0 22 -19 371 6 409 29 6 3 32 7 59 8 27 1 52 6 56 12 3 7 24 12 46 13 21 0 44 5 50 9 6 5 21 11 35 13 13 3 24 5 24 6 0 1 13 3 29 5 16 2 32 9 36 15 4 6 11 10 16 9 17 -3 74 14 74 22 0 5 9 9 20 9 11 0 37 8 58 17 20 9 42 17 49 18 7 0 18 8 25 17 7 10 28 19 45 20 18 1 35 8 37 15 3 7 12 13 21 13 8 0 15 4 15 10 0 5 6 7 14 4 8 -3 19 3 25 15 6 11 30 30 54 41 88 43 122 63 125 71 2 5 10 9 18 9 13 0 18 12 15 33 -1 4 12 10 29 13 16 4 30 10 30 15 0 5 7 9 15 9 9 0 18 7 21 15 4 8 12 15 20 15 8 0 14 5 14 10 0 6 5 10 11 10 7 0 19 8 28 18 9 10 31 25 49 33 17 7 32 19 32 26 0 6 14 23 30 36 17 14 30 30 30 35 0 5 9 12 21 15 11 3 23 15 26 26 3 12 11 21 19 21 7 0 24 18 36 40 13 22 29 40 36 40 6 0 12 9 12 20 0 13 9 22 25 26 29 7 48 35 39 58 -3 9 -1 16 6 16 14 0 41 26 55 54 21 39 40 69 55 87 35 41 40 49 40 63 0 9 9 20 20 26 11 6 20 16 19 23 -3 26 1 48 9 43 7 -4 38 46 47 74 1 3 9 22 18 42 10 21 17 41 17 46 0 4 5 13 12 20 6 6 13 18 14 26 2 13 28 75 45 108 5 10 6 24 3 32 -3 8 4 20 15 28 12 8 18 18 15 21 -4 4 -2 12 4 20 6 7 11 22 11 32 0 19 3 34 13 65 21 62 26 89 21 113 -3 16 -1 27 6 27 6 0 11 7 11 15 0 8 3 15 8 15 4 0 8 24 9 54 2 30 7 66 13 80 6 16 6 35 0 50 -5 15 -5 38 0 58 5 18 11 63 13 99 3 37 8 72 11 78 4 6 3 11 -3 11 -5 0 -10 30 -11 68 -2 139 -5 197 -11 207 -3 6 -4 24 -3 40 1 17 -5 63 -13 103 -8 40 -11 77 -8 82 3 6 1 10 -4 10 -6 0 -11 11 -11 25 0 14 -5 25 -10 25 -6 0 -8 11 -6 24 2 13 -4 40 -14 59 -11 20 -20 52 -22 71 -1 20 -5 36 -9 36 -10 0 -34 63 -31 83 2 9 -13 51 -32 93 -20 41 -36 77 -36 80 0 4 -14 26 -30 51 -20 30 -29 52 -24 65 4 14 0 21 -14 25 -14 3 -18 11 -14 25 3 14 1 19 -6 14 -8 -5 -12 1 -12 16 -1 13 -14 39 -30 58 -17 19 -30 40 -30 47 0 7 -10 13 -21 13 -17 0 -20 5 -17 25 4 17 1 25 -8 25 -8 0 -14 8 -14 18 0 24 -67 95 -82 86 -7 -4 -8 -3 -4 5 5 7 -9 28 -33 53 -23 22 -41 44 -41 48 0 9 -67 80 -75 80 -11 0 -65 64 -65 76 0 8 -15 20 -34 28 -19 8 -42 26 -51 40 -10 14 -24 26 -31 26 -8 0 -14 7 -14 15 0 8 -6 12 -14 9 -9 -3 -17 3 -21 15 -4 14 -15 21 -31 21 -17 0 -24 5 -24 20 0 11 -4 21 -10 21 -5 1 -14 2 -19 3 -5 0 -17 11 -27 24 -11 13 -26 24 -34 26 -32 6 -70 30 -76 48 -4 13 -12 18 -24 15 -18 -5 -60 25 -60 42 0 5 -9 7 -19 4 -13 -3 -21 2 -26 17 -4 12 -9 19 -12 17 -5 -6 -96 32 -205 85 -10 4 -27 8 -38 8 -11 0 -20 3 -20 8 0 16 -85 47 -215 78 -38 10 -74 20 -80 24 -5 3 -21 5 -35 4 -14 -1 -58 7 -99 18 -40 11 -86 17 -102 14 -16 -3 -40 1 -56 9 -17 9 -31 11 -37 5 -5 -5 -16 -5 -25 -1 -9 5 -58 6 -109 2 -51 -3 -100 -4 -110 0 -40 14 -111 16 -116 3z m173 -389 c39 -5 81 -27 81 -41 0 -7 9 -18 20 -24 38 -20 11 -140 -31 -140 -11 0 -19 -5 -19 -10 0 -6 -6 -10 -12 -9 -7 1 -28 1 -45 0 -28 -1 -33 -5 -33 -26 0 -14 8 -33 18 -43 44 -48 51 -60 39 -75 -25 -31 -58 -28 -93 10 -19 20 -33 41 -32 47 1 6 -5 22 -15 36 -9 14 -15 35 -13 47 3 13 -2 24 -10 27 -9 3 -13 10 -10 14 3 5 7 44 10 87 3 43 9 82 15 88 13 13 73 26 91 20 8 -3 26 -7 39 -8z m-901 -271 c12 -4 22 -13 22 -20 0 -8 4 -14 8 -14 5 0 8 -17 7 -37 -1 -21 4 -45 10 -53 7 -8 15 -31 18 -50 3 -19 8 -47 11 -62 4 -19 2 -28 -6 -28 -9 0 -10 -3 -2 -8 32 -20 21 -101 -12 -88 -8 3 -17 0 -20 -8 -3 -7 -16 -13 -29 -13 -13 0 -40 -10 -60 -22 -28 -16 -43 -19 -73 -13 -33 7 -37 11 -40 42 -1 19 -7 44 -12 55 -25 56 -15 91 30 107 26 9 51 -17 48 -48 -2 -21 1 -29 12 -29 8 0 18 -5 22 -12 15 -22 47 -2 54 34 5 28 3 38 -11 46 -14 7 -15 11 -4 17 9 6 10 12 2 22 -5 7 -17 37 -27 65 -15 47 -15 57 -2 88 16 37 18 38 54 29z m1765 -17 c15 -1 27 -7 27 -14 0 -7 8 -17 19 -22 40 -22 32 -141 -10 -141 -10 0 -21 -9 -24 -20 -4 -12 -14 -20 -23 -19 -25 4 -63 -11 -56 -22 3 -5 10 -7 15 -3 5 3 16 1 23 -5 12 -10 78 -8 137 4 32 7 51 -26 37 -67 -8 -23 -12 -25 -39 -18 -22 7 -29 5 -29 -6 0 -17 -41 -19 -58 -2 -9 9 -15 9 -23 1 -8 -8 -19 -9 -37 -2 -21 8 -23 8 -13 -5 18 -22 8 -31 -36 -31 -27 0 -38 4 -38 15 0 8 -4 18 -8 21 -5 3 -10 29 -11 57 -2 28 -8 57 -14 65 -9 10 -7 17 7 29 10 9 20 21 23 29 2 7 22 14 43 15 49 4 74 26 56 48 -7 9 -20 15 -29 14 -10 -1 -32 0 -49 0 -32 2 -33 3 -33 46 l0 43 58 -4 c31 -3 69 -5 85 -6z m-2350 -551 c3 -8 22 -18 41 -22 20 -3 36 -12 36 -19 0 -8 7 -21 16 -30 9 -9 14 -18 11 -21 -3 -3 -1 -19 3 -35 6 -20 4 -41 -8 -71 -12 -31 -13 -43 -4 -46 7 -2 12 -16 12 -30 0 -15 4 -33 9 -41 11 -16 -8 -49 -54 -97 -26 -27 -36 -31 -80 -30 -60 2 -119 30 -111 53 4 9 1 22 -5 29 -6 8 -8 14 -3 14 4 0 -1 6 -11 14 -19 14 -19 15 -1 34 11 13 15 28 12 40 -5 13 -1 22 11 26 16 7 16 9 -5 24 -17 13 -23 29 -25 62 -1 27 3 45 11 48 7 2 12 15 12 28 0 13 5 24 10 24 6 0 10 6 10 14 0 9 7 12 20 9 14 -4 20 0 20 10 0 14 16 21 56 26 7 0 14 -6 17 -13z m3037 -66 c0 -5 6 -10 14 -10 22 0 29 -19 15 -36 -9 -11 -10 -18 -2 -22 6 -4 13 -21 15 -37 2 -23 7 -29 22 -27 39 7 66 -7 66 -35 0 -34 -37 -66 -68 -58 -23 6 -24 4 -17 -22 3 -15 11 -29 16 -31 24 -9 -8 -112 -34 -112 -34 0 -58 20 -52 41 4 11 2 26 -5 33 -6 8 -10 18 -9 22 1 5 1 24 0 42 -1 30 -4 32 -35 32 -44 0 -53 -29 -20 -65 12 -14 20 -25 16 -25 -4 0 -1 -4 7 -9 18 -12 6 -46 -25 -66 -31 -20 -54 -13 -54 15 0 11 -4 20 -10 20 -5 0 -10 12 -10 26 0 15 -7 32 -16 38 -19 14 -32 71 -24 111 5 26 9 29 43 29 20 0 37 4 37 8 0 5 17 5 39 2 29 -5 39 -3 44 10 3 8 2 18 -2 21 -5 3 -7 14 -4 24 3 10 0 22 -5 25 -14 8 8 54 28 60 26 7 30 6 30 -4z m-3275 -830 c3 -5 12 -7 20 -3 18 6 20 -8 3 -25 -9 -9 -9 -12 1 -12 9 0 12 -14 10 -45 -2 -24 0 -47 4 -51 4 -4 2 -13 -4 -20 -9 -10 -7 -15 5 -20 9 -3 16 -16 16 -28 0 -12 6 -28 13 -35 10 -10 9 -15 -3 -24 -16 -12 -47 -95 -42 -110 1 -5 -2 -6 -7 -3 -5 3 -14 -1 -21 -9 -7 -8 -16 -12 -21 -9 -5 2 -20 -3 -35 -12 -21 -14 -30 -15 -45 -6 -10 7 -28 12 -39 12 -11 0 -20 7 -20 15 0 9 -6 12 -15 9 -10 -4 -15 0 -15 15 0 12 -6 24 -14 27 -12 4 -13 18 -9 57 3 29 9 54 13 57 7 6 23 40 24 55 1 6 12 9 26 7 13 -1 27 3 31 10 7 11 12 11 29 0 32 -20 41 -5 38 58 -2 46 1 63 16 79 21 23 32 26 41 11z m3487 -43 c4 -7 12 -6 22 2 11 9 16 10 16 2 0 -6 20 -20 45 -32 32 -15 45 -27 45 -43 0 -11 7 -30 15 -40 19 -25 19 -46 0 -46 -8 0 -19 -16 -25 -40 -6 -21 -18 -44 -28 -49 -9 -6 -12 -11 -6 -11 21 0 26 -67 9 -125 -14 -46 -20 -55 -39 -55 -12 0 -26 -3 -30 -7 -10 -10 -108 -11 -128 -1 -10 5 -18 15 -18 23 0 8 -4 15 -9 15 -4 0 -6 11 -3 25 5 28 44 44 65 27 15 -12 74 -9 88 5 14 14 -6 53 -26 53 -16 0 -55 47 -55 66 0 8 7 14 15 14 8 0 15 5 15 10 0 6 11 10 25 10 16 0 25 6 25 15 0 8 4 15 9 15 5 0 16 14 25 31 14 28 14 30 -2 28 -16 -2 -33 3 -77 21 -11 5 -30 12 -42 15 -13 4 -23 12 -23 20 0 7 -6 16 -12 18 -9 4 -5 12 12 26 26 21 80 25 92 8z m-3178 -887 c14 -5 28 -20 32 -34 3 -13 15 -26 26 -29 13 -4 19 -13 17 -29 -1 -13 1 -31 6 -41 8 -19 2 -123 -8 -133 -3 -4 -18 -6 -32 -6 -17 0 -29 -7 -34 -20 -6 -18 -9 -18 -20 -4 -9 11 -19 13 -37 6 -46 -18 -122 35 -120 83 1 15 -2 27 -6 27 -4 0 -6 19 -6 42 0 43 14 77 36 91 6 4 12 14 12 21 0 26 89 43 134 26z m3074 -4 c10 -6 11 -11 3 -19 -6 -6 -11 -19 -11 -28 0 -15 -24 -29 -55 -33 -5 -1 -15 -5 -22 -9 -6 -4 -14 -3 -18 3 -9 15 -25 12 -25 -5 0 -8 9 -19 20 -25 11 -6 20 -17 20 -24 0 -8 7 -19 15 -26 17 -14 20 -60 4 -60 -6 0 -8 -9 -4 -21 5 -16 0 -28 -20 -45 -16 -13 -32 -24 -36 -24 -4 0 -15 -8 -24 -17 -14 -13 -21 -14 -36 -5 -10 6 -32 9 -49 6 -18 -4 -30 -2 -30 4 0 6 -8 13 -18 17 -11 3 -24 22 -30 44 -16 50 -17 47 18 61 26 11 33 10 50 -5 11 -10 20 -24 20 -31 0 -18 61 -6 77 15 17 22 16 32 -5 38 -10 2 -26 17 -37 33 -11 16 -32 32 -46 35 -26 6 -89 59 -89 75 0 24 15 40 36 40 13 0 24 3 24 8 0 10 252 9 268 -2z m-3291 -56 c4 -94 3 -113 -8 -126 -6 -7 -8 -26 -5 -41 5 -23 2 -30 -20 -40 -22 -10 -29 -9 -44 5 -14 13 -18 30 -16 77 1 33 5 66 9 73 5 7 6 20 4 30 -21 76 -17 82 48 79 29 -2 30 -3 32 -57z m580 -566 c1 -27 3 -93 6 -147 4 -102 -1 -115 -43 -111 -8 1 -22 2 -30 3 -12 1 -16 19 -18 84 -1 45 -4 107 -5 137 -4 72 8 91 53 86 34 -3 35 -4 37 -52z m173 10 c0 -8 8 -14 18 -14 14 0 14 -2 3 -9 -11 -7 -12 -15 -3 -38 12 -29 14 -103 3 -103 -4 0 -5 -18 -3 -40 5 -46 -10 -70 -42 -70 -41 1 -53 21 -51 86 1 33 5 66 9 72 4 7 3 12 -3 12 -8 0 -8 14 2 95 1 11 12 22 27 25 30 8 40 4 40 -16z m1825 -24 c3 -11 3 -30 -1 -42 -11 -35 -12 -161 -2 -175 7 -8 2 -20 -16 -38 -53 -53 -74 -26 -72 90 1 44 -2 85 -6 91 -5 7 -2 17 7 24 8 7 15 23 15 35 0 36 64 48 75 15z m-1070 -280 c4 -11 3 -30 -1 -42 -6 -20 -12 -62 -15 -123 -1 -11 -1 -40 1 -65 4 -93 -25 -125 -75 -82 -27 23 -34 152 -10 188 9 13 11 24 6 24 -5 0 -8 11 -7 25 0 14 5 25 10 25 4 0 6 7 2 15 -8 21 23 50 56 52 19 2 29 -3 33 -17z m343 -22 c30 -25 6 -66 -38 -67 -49 -1 -60 -5 -60 -22 0 -10 4 -20 8 -23 5 -3 9 -21 10 -40 1 -18 2 -38 3 -42 4 -24 -3 -43 -25 -67 -13 -14 -27 -23 -30 -20 -3 4 -14 -2 -25 -11 -15 -13 -27 -16 -57 -10 -22 5 -44 7 -51 6 -7 -2 -17 7 -23 18 -15 29 15 69 53 70 15 0 27 -4 27 -8 0 -4 9 -8 20 -9 33 -3 45 42 20 76 -11 16 -17 30 -15 33 2 2 -11 12 -30 23 -19 10 -35 24 -35 32 0 7 -4 13 -9 13 -5 0 -7 9 -4 20 3 12 8 18 11 15 3 -2 12 1 19 7 8 7 43 12 78 12 35 1 67 5 71 9 9 9 64 -1 82 -15z"/>
</g>
<g id="layer103" fill="#ffffff" stroke="none">
<path d="M2426 4551 c-3 -5 -50 -8 -103 -7 -54 2 -103 -1 -109 -6 -6 -4 -25 -10 -43 -12 -17 -2 -34 -6 -37 -9 -4 -3 -18 -1 -32 4 -17 7 -27 6 -32 -1 -3 -5 -28 -12 -54 -14 -26 -3 -54 -10 -62 -17 -8 -6 -25 -9 -40 -6 -14 2 -43 -4 -64 -14 -22 -11 -46 -19 -55 -19 -9 0 -27 -7 -40 -16 -14 -9 -25 -13 -25 -10 0 4 -10 1 -22 -6 -13 -7 -31 -11 -41 -9 -10 1 -30 -9 -44 -23 -14 -14 -32 -26 -40 -26 -7 0 -24 -7 -37 -15 -13 -9 -28 -15 -32 -14 -14 3 -45 -12 -91 -43 -23 -15 -44 -28 -47 -28 -14 0 -86 -36 -86 -42 0 -5 -7 -8 -15 -8 -8 0 -15 -7 -15 -15 0 -8 -5 -15 -11 -15 -20 0 -119 -72 -119 -86 0 -8 -8 -14 -18 -14 -19 0 -62 -39 -62 -56 -1 -15 -50 -46 -66 -40 -8 3 -14 -1 -14 -9 0 -8 -9 -19 -20 -25 -11 -6 -18 -15 -15 -20 7 -11 -63 -83 -88 -93 -10 -4 -20 -15 -24 -24 -4 -10 -13 -22 -20 -26 -7 -5 -11 -12 -8 -18 4 -5 -1 -9 -9 -9 -9 0 -16 -6 -16 -14 0 -8 -14 -28 -30 -46 -22 -23 -27 -36 -20 -45 7 -8 3 -15 -14 -24 -13 -7 -29 -25 -36 -39 -6 -14 -19 -32 -29 -38 -9 -7 -23 -31 -31 -53 -7 -23 -17 -41 -22 -41 -4 0 -8 -7 -8 -15 0 -9 -7 -18 -15 -21 -8 -4 -15 -14 -15 -24 0 -10 -6 -20 -14 -23 -9 -4 -12 -14 -9 -26 3 -12 0 -28 -7 -36 -6 -8 -9 -19 -5 -25 3 -5 0 -10 -8 -10 -18 0 -29 -24 -21 -45 3 -8 -3 -27 -14 -43 -12 -15 -24 -41 -28 -58 -4 -16 -11 -35 -17 -41 -5 -7 -7 -26 -5 -42 2 -17 1 -28 -4 -25 -4 3 -11 -3 -14 -13 -3 -10 -12 -31 -21 -46 -10 -18 -13 -40 -9 -62 4 -21 2 -35 -5 -37 -6 -2 -12 -25 -13 -51 -1 -25 -5 -50 -9 -53 -4 -4 -4 -17 -1 -30 3 -12 1 -31 -5 -42 -6 -12 -7 -23 -2 -26 5 -4 4 -24 -4 -48 -6 -24 -10 -49 -7 -57 2 -7 -1 -17 -9 -21 -10 -7 -10 -11 1 -24 7 -9 10 -19 7 -23 -4 -3 -2 -12 3 -19 13 -15 9 -35 -10 -51 -9 -7 -10 -12 -4 -13 7 0 12 -10 12 -22 1 -82 9 -175 15 -185 4 -6 3 -14 -2 -17 -5 -4 -3 -19 6 -37 9 -18 12 -40 9 -55 -4 -14 -2 -32 4 -39 6 -8 13 -34 16 -58 2 -24 11 -61 19 -80 8 -20 15 -49 15 -64 0 -15 7 -41 15 -56 8 -16 16 -39 18 -52 1 -13 6 -27 10 -31 4 -4 7 -18 7 -31 0 -14 6 -23 15 -23 8 0 15 -9 15 -19 0 -11 5 -23 10 -26 6 -4 8 -11 4 -16 -3 -6 1 -18 9 -27 8 -9 18 -32 22 -51 4 -21 14 -35 26 -38 10 -3 19 -12 19 -21 0 -22 40 -102 51 -102 5 0 9 -9 9 -21 0 -13 8 -23 20 -26 14 -4 19 -11 15 -24 -4 -12 1 -21 15 -29 11 -6 20 -17 20 -25 0 -8 4 -15 10 -15 5 0 9 -3 9 -8 -3 -19 2 -33 11 -27 6 3 14 -4 19 -17 5 -13 18 -32 30 -42 11 -11 21 -24 21 -29 0 -12 47 -56 54 -50 2 3 16 -12 30 -34 33 -52 66 -87 99 -107 15 -9 27 -23 27 -31 0 -8 9 -15 19 -15 11 0 22 -8 26 -19 3 -10 22 -27 42 -37 36 -18 103 -81 103 -96 0 -5 9 -8 21 -8 12 0 23 -8 26 -20 6 -21 28 -27 38 -10 4 6 15 0 27 -15 11 -15 26 -24 33 -21 7 2 15 -4 18 -16 3 -11 10 -17 16 -13 6 3 18 -1 27 -9 9 -9 20 -13 26 -10 5 3 16 -3 24 -15 8 -12 24 -21 35 -21 11 0 22 -7 26 -16 3 -8 12 -13 19 -10 16 6 84 -31 84 -45 0 -5 11 -7 24 -3 16 4 25 1 30 -11 4 -12 10 -14 23 -6 13 7 23 5 35 -6 9 -8 35 -17 57 -20 22 -3 46 -12 52 -19 6 -8 28 -14 48 -14 20 0 48 -6 63 -14 15 -8 36 -12 48 -9 11 3 20 1 20 -4 0 -5 19 -10 43 -11 23 -1 69 -7 102 -12 33 -6 94 -11 135 -13 41 -1 80 -5 85 -8 6 -4 24 -5 40 -3 17 2 77 5 135 7 58 2 115 9 126 15 12 6 24 9 27 6 3 -3 32 0 64 7 32 7 67 13 78 15 11 1 21 3 23 4 1 2 6 3 11 4 5 0 13 4 17 8 4 5 31 8 60 8 45 0 54 3 59 21 4 12 10 17 14 12 8 -14 46 -10 65 6 9 8 16 11 16 7 0 -4 11 1 25 10 14 9 25 13 25 8 0 -4 11 3 24 15 16 15 31 21 44 17 11 -4 24 0 32 9 7 8 20 15 30 15 10 0 23 6 29 13 6 8 29 19 51 26 22 6 40 16 40 21 0 6 6 10 13 10 8 0 33 14 55 30 23 17 42 28 42 25 0 -3 10 0 22 6 21 11 35 23 112 94 18 17 40 31 49 33 9 2 32 18 49 36 18 18 48 39 66 47 17 8 32 17 32 21 0 3 14 20 30 36 17 17 30 35 30 41 0 6 4 11 10 11 10 0 70 59 70 69 0 3 14 21 30 40 17 18 30 38 30 42 0 5 7 9 15 9 8 0 15 7 15 15 0 8 5 15 10 15 6 0 15 11 20 25 5 14 14 25 20 25 5 0 10 7 10 15 0 8 7 15 16 15 11 0 14 6 9 20 -4 14 -2 20 9 20 9 0 19 12 22 28 4 15 17 37 30 50 12 13 32 43 43 67 12 25 26 45 31 45 6 0 10 13 10 29 0 17 5 33 10 36 6 4 8 11 5 16 -4 5 -1 9 5 9 6 0 10 8 9 18 -3 38 2 52 20 52 14 0 20 10 24 42 3 23 13 45 22 51 12 6 15 16 10 34 -3 14 -1 31 6 39 6 7 8 21 5 30 -4 10 1 25 10 35 9 10 17 31 19 47 1 16 5 34 9 40 4 7 5 12 2 12 -4 0 3 16 13 36 14 27 18 49 15 86 -3 28 1 67 7 87 7 20 14 47 16 61 9 55 10 221 2 266 -6 30 -5 51 1 59 5 6 8 14 6 16 -9 9 -15 99 -7 104 5 3 3 18 -4 33 -8 15 -16 45 -19 67 -5 38 -12 74 -16 85 -1 3 -1 18 0 33 1 15 -4 35 -12 44 -7 9 -13 23 -13 32 0 14 -21 107 -31 139 -2 7 -4 16 -4 20 -1 4 -8 14 -16 23 -8 9 -11 19 -8 22 4 4 1 13 -6 22 -7 8 -10 15 -6 15 3 0 -4 17 -17 38 -13 20 -30 55 -38 77 -7 22 -25 56 -40 75 -14 19 -32 55 -39 79 -8 24 -20 49 -27 57 -7 7 -13 15 -13 18 0 3 -9 15 -20 26 -11 11 -23 34 -27 50 -3 17 -12 30 -19 30 -8 0 -19 9 -26 20 -7 11 -18 20 -25 20 -7 0 -11 12 -10 27 1 19 -5 30 -21 39 -35 18 -62 51 -56 68 4 11 -3 19 -20 26 -15 5 -48 33 -74 61 -26 28 -57 62 -69 75 -12 13 -27 24 -33 24 -5 0 -10 8 -10 18 0 12 -15 25 -42 37 -23 10 -54 31 -69 47 -16 15 -46 37 -69 49 -22 12 -40 25 -40 30 0 11 -56 40 -63 33 -3 -3 -10 4 -17 15 -6 12 -17 21 -26 21 -8 0 -27 11 -42 25 -26 24 -41 30 -70 26 -8 -1 -16 7 -19 18 -4 16 -13 21 -39 21 -19 0 -34 5 -34 11 0 6 -8 8 -19 4 -10 -3 -24 1 -31 10 -7 8 -17 15 -22 15 -5 0 -29 9 -54 20 -24 11 -58 23 -74 27 -17 3 -30 10 -30 15 0 6 -7 8 -15 5 -8 -4 -17 -2 -20 3 -4 6 -17 10 -30 10 -13 0 -27 5 -30 10 -4 6 -15 8 -26 5 -11 -4 -19 -2 -19 4 0 7 -23 11 -54 11 -30 0 -58 5 -62 11 -3 6 -20 9 -37 6 -17 -2 -42 2 -56 9 -19 10 -28 10 -39 2 -10 -9 -15 -9 -20 -1 -5 7 -22 9 -50 3 -23 -4 -42 -4 -42 -1 0 4 -23 6 -50 5 -28 -1 -53 3 -56 7 -7 12 -21 11 -28 0z m43 -136 c39 -5 81 -27 81 -41 0 -7 9 -18 20 -24 38 -20 11 -140 -31 -140 -11 0 -19 -5 -19 -10 0 -6 -6 -10 -12 -9 -7 1 -28 1 -45 0 -28 -1 -33 -5 -33 -26 0 -14 8 -33 18 -43 44 -48 51 -60 39 -75 -25 -31 -58 -28 -93 10 -19 20 -33 41 -32 47 1 6 -5 22 -15 36 -9 14 -15 35 -13 47 3 13 -2 24 -10 27 -9 3 -13 10 -10 14 3 5 7 44 10 87 3 43 9 82 15 88 13 13 73 26 91 20 8 -3 26 -7 39 -8z m-901 -271 c12 -4 22 -13 22 -20 0 -8 4 -14 8 -14 5 0 8 -17 7 -37 -1 -21 4 -45 10 -53 7 -8 15 -31 18 -50 3 -19 8 -47 11 -62 4 -19 2 -28 -6 -28 -9 0 -10 -3 -2 -8 32 -20 21 -101 -12 -88 -8 3 -17 0 -20 -8 -3 -7 -16 -13 -29 -13 -13 0 -40 -10 -60 -22 -28 -16 -43 -19 -73 -13 -33 7 -37 11 -40 42 -1 19 -7 44 -12 55 -25 56 -15 91 30 107 26 9 51 -17 48 -48 -2 -21 1 -29 12 -29 8 0 18 -5 22 -12 15 -22 47 -2 54 34 5 28 3 38 -11 46 -14 7 -15 11 -4 17 9 6 10 12 2 22 -5 7 -17 37 -27 65 -15 47 -15 57 -2 88 16 37 18 38 54 29z m1765 -17 c15 -1 27 -7 27 -14 0 -7 8 -17 19 -22 40 -22 32 -141 -10 -141 -10 0 -21 -9 -24 -20 -4 -12 -14 -20 -23 -19 -25 4 -63 -11 -56 -22 3 -5 10 -7 15 -3 5 3 16 1 23 -5 12 -10 78 -8 137 4 32 7 51 -26 37 -67 -8 -23 -12 -25 -39 -18 -22 7 -29 5 -29 -6 0 -17 -41 -19 -58 -2 -9 9 -15 9 -23 1 -8 -8 -19 -9 -37 -2 -21 8 -23 8 -13 -5 18 -22 8 -31 -36 -31 -27 0 -38 4 -38 15 0 8 -4 18 -8 21 -5 3 -10 29 -11 57 -2 28 -8 57 -14 65 -9 10 -7 17 7 29 10 9 20 21 23 29 2 7 22 14 43 15 49 4 74 26 56 48 -7 9 -20 15 -29 14 -10 -1 -32 0 -49 0 -32 2 -33 3 -33 46 l0 43 58 -4 c31 -3 69 -5 85 -6z m-2350 -551 c3 -8 22 -18 41 -22 20 -3 36 -12 36 -19 0 -8 7 -21 16 -30 9 -9 14 -18 11 -21 -3 -3 -1 -19 3 -35 6 -20 4 -41 -8 -71 -12 -31 -13 -43 -4 -46 7 -2 12 -16 12 -30 0 -15 4 -33 9 -41 11 -16 -8 -49 -54 -97 -26 -27 -36 -31 -80 -30 -60 2 -119 30 -111 53 4 9 1 22 -5 29 -6 8 -8 14 -3 14 4 0 -1 6 -11 14 -19 14 -19 15 -1 34 11 13 15 28 12 40 -5 13 -1 22 11 26 16 7 16 9 -5 24 -17 13 -23 29 -25 62 -1 27 3 45 11 48 7 2 12 15 12 28 0 13 5 24 10 24 6 0 10 6 10 14 0 9 7 12 20 9 14 -4 20 0 20 10 0 14 16 21 56 26 7 0 14 -6 17 -13z m3037 -66 c0 -5 6 -10 14 -10 22 0 29 -19 15 -36 -9 -11 -10 -18 -2 -22 6 -4 13 -21 15 -37 2 -23 7 -29 22 -27 39 7 66 -7 66 -35 0 -34 -37 -66 -68 -58 -23 6 -24 4 -17 -22 3 -15 11 -29 16 -31 24 -9 -8 -112 -34 -112 -34 0 -58 20 -52 41 4 11 2 26 -5 33 -6 8 -10 18 -9 22 1 5 1 24 0 42 -1 30 -4 32 -35 32 -44 0 -53 -29 -20 -65 12 -14 20 -25 16 -25 -4 0 -1 -4 7 -9 18 -12 6 -46 -25 -66 -31 -20 -54 -13 -54 15 0 11 -4 20 -10 20 -5 0 -10 12 -10 26 0 15 -7 32 -16 38 -19 14 -32 71 -24 111 5 26 9 29 43 29 20 0 37 4 37 8 0 5 17 5 39 2 29 -5 39 -3 44 10 3 8 2 18 -2 21 -5 3 -7 14 -4 24 3 10 0 22 -5 25 -14 8 8 54 28 60 26 7 30 6 30 -4z m-3275 -830 c3 -5 12 -7 20 -3 18 6 20 -8 3 -25 -9 -9 -9 -12 1 -12 9 0 12 -14 10 -45 -2 -24 0 -47 4 -51 4 -4 2 -13 -4 -20 -9 -10 -7 -15 5 -20 9 -3 16 -16 16 -28 0 -12 6 -28 13 -35 10 -10 9 -15 -3 -24 -16 -12 -47 -95 -42 -110 1 -5 -2 -6 -7 -3 -5 3 -14 -1 -21 -9 -7 -8 -16 -12 -21 -9 -5 2 -20 -3 -35 -12 -21 -14 -30 -15 -45 -6 -10 7 -28 12 -39 12 -11 0 -20 7 -20 15 0 9 -6 12 -15 9 -10 -4 -15 0 -15 15 0 12 -6 24 -14 27 -12 4 -13 18 -9 57 3 29 9 54 13 57 7 6 23 40 24 55 1 6 12 9 26 7 13 -1 27 3 31 10 7 11 12 11 29 0 32 -20 41 -5 38 58 -2 46 1 63 16 79 21 23 32 26 41 11z m3487 -43 c4 -7 12 -6 22 2 11 9 16 10 16 2 0 -6 20 -20 45 -32 32 -15 45 -27 45 -43 0 -11 7 -30 15 -40 19 -25 19 -46 0 -46 -8 0 -19 -16 -25 -40 -6 -21 -18 -44 -28 -49 -9 -6 -12 -11 -6 -11 21 0 26 -67 9 -125 -14 -46 -20 -55 -39 -55 -12 0 -26 -3 -30 -7 -10 -10 -108 -11 -128 -1 -10 5 -18 15 -18 23 0 8 -4 15 -9 15 -4 0 -6 11 -3 25 5 28 44 44 65 27 15 -12 74 -9 88 5 14 14 -6 53 -26 53 -16 0 -55 47 -55 66 0 8 7 14 15 14 8 0 15 5 15 10 0 6 11 10 25 10 16 0 25 6 25 15 0 8 4 15 9 15 5 0 16 14 25 31 14 28 14 30 -2 28 -16 -2 -33 3 -77 21 -11 5 -30 12 -42 15 -13 4 -23 12 -23 20 0 7 -6 16 -12 18 -9 4 -5 12 12 26 26 21 80 25 92 8z m-3178 -887 c14 -5 28 -20 32 -34 3 -13 15 -26 26 -29 13 -4 19 -13 17 -29 -1 -13 1 -31 6 -41 8 -19 2 -123 -8 -133 -3 -4 -18 -6 -32 -6 -17 0 -29 -7 -34 -20 -6 -18 -9 -18 -20 -4 -9 11 -19 13 -37 6 -46 -18 -122 35 -120 83 1 15 -2 27 -6 27 -4 0 -6 19 -6 42 0 43 14 77 36 91 6 4 12 14 12 21 0 26 89 43 134 26z m3067 2 c9 -1 19 -12 22 -24 8 -28 -21 -57 -61 -61 -15 -2 -33 -6 -39 -10 -7 -4 -14 -3 -18 3 -9 15 -25 12 -25 -5 0 -8 9 -19 20 -25 11 -6 20 -17 20 -24 0 -8 7 -19 15 -26 17 -14 20 -60 4 -60 -6 0 -8 -9 -4 -21 5 -16 0 -28 -20 -45 -16 -13 -32 -24 -36 -24 -4 0 -15 -8 -24 -17 -14 -13 -21 -14 -36 -5 -10 6 -32 9 -49 6 -18 -4 -30 -2 -30 4 0 6 -8 13 -18 17 -11 3 -24 22 -30 44 -16 50 -17 47 18 61 26 11 33 10 50 -5 11 -10 20 -24 20 -31 0 -18 61 -6 77 15 17 22 16 32 -5 38 -10 2 -26 17 -37 33 -11 16 -32 32 -46 35 -26 6 -89 59 -89 75 0 24 15 40 36 40 13 0 24 3 24 8 0 6 206 9 261 4z m-3284 -62 c4 -94 3 -113 -8 -126 -6 -7 -8 -26 -5 -41 5 -23 2 -30 -20 -40 -22 -10 -29 -9 -44 5 -14 13 -18 30 -16 77 1 33 5 66 9 73 5 7 6 20 4 30 -21 76 -17 82 48 79 29 -2 30 -3 32 -57z m580 -566 c1 -27 3 -93 6 -147 4 -102 -1 -115 -43 -111 -8 1 -22 2 -30 3 -12 1 -16 19 -18 84 -1 45 -4 107 -5 137 -4 72 8 91 53 86 34 -3 35 -4 37 -52z m173 10 c0 -8 8 -14 18 -14 14 0 14 -2 3 -9 -11 -7 -12 -15 -3 -38 12 -29 14 -103 3 -103 -4 0 -5 -18 -3 -40 5 -46 -10 -70 -42 -70 -41 1 -53 21 -51 86 1 33 5 66 9 72 4 7 3 12 -3 12 -8 0 -8 14 2 95 1 11 12 22 27 25 30 8 40 4 40 -16z m1825 -24 c3 -11 3 -30 -1 -42 -11 -35 -12 -161 -2 -175 7 -8 2 -20 -16 -38 -53 -53 -74 -26 -72 90 1 44 -2 85 -6 91 -5 7 -2 17 7 24 8 7 15 23 15 35 0 36 64 48 75 15z m-1070 -280 c4 -11 3 -30 -1 -42 -6 -20 -12 -62 -15 -123 -1 -11 -1 -40 1 -65 4 -93 -25 -125 -75 -82 -27 23 -34 152 -10 188 9 13 11 24 6 24 -5 0 -8 11 -7 25 0 14 5 25 10 25 4 0 6 7 2 15 -8 21 23 50 56 52 19 2 29 -3 33 -17z m343 -22 c30 -25 6 -66 -38 -67 -49 -1 -60 -5 -60 -22 0 -10 4 -20 8 -23 5 -3 9 -21 10 -40 1 -18 2 -38 3 -42 4 -24 -3 -43 -25 -67 -13 -14 -27 -23 -30 -20 -3 4 -14 -2 -25 -11 -15 -13 -27 -16 -57 -10 -22 5 -44 7 -51 6 -7 -2 -17 7 -23 18 -15 29 15 69 53 70 15 0 27 -4 27 -8 0 -4 9 -8 20 -9 33 -3 45 42 20 76 -11 16 -17 30 -15 33 2 2 -11 12 -30 23 -19 10 -35 24 -35 32 0 7 -4 13 -9 13 -5 0 -7 9 -4 20 3 12 8 18 11 15 3 -2 12 1 19 7 8 7 43 12 78 12 35 1 67 5 71 9 9 9 64 -1 82 -15z"/>
<path d="M2406 4324 c-9 -23 -8 -24 20 -34 30 -12 54 1 50 27 -4 22 -62 28 -70 7z"/>
<path d="M923 3470 c-11 -17 -9 -23 15 -45 15 -14 33 -23 40 -20 8 3 18 5 23 5 5 0 9 11 9 25 0 18 -5 25 -19 25 -10 0 -21 7 -25 15 -8 21 -29 19 -43 -5z"/>
<path d="M957 3300 c-47 -9 -48 -10 -38 -45 5 -23 14 -30 34 -32 29 -2 34 3 47 47 10 36 6 38 -43 30z"/>
<path d="M622 2429 c-11 -29 -4 -57 17 -68 12 -7 24 -1 46 20 25 26 27 31 14 44 -8 7 -26 17 -41 20 -23 6 -29 3 -36 -16z"/>
<path d="M959 1638 c-8 -16 -7 -28 7 -54 21 -39 35 -47 66 -35 27 10 32 68 8 92 -23 23 -68 21 -81 -3z"/>
</g>


</svg>